<mxfile host="app.diagrams.net" modified="2024-02-09T07:27:23.361Z" agent="Mozilla/5.0 (Windows NT 10.0; Win64; x64) AppleWebKit/537.36 (KHTML, like Gecko) Chrome/121.0.0.0 Safari/537.36" etag="RgzvLd6Xc0cYCzEcqEL7" version="23.1.2" type="github">
  <diagram id="C5RBs43oDa-KdzZeNtuy" name="Page-1">
    <mxGraphModel dx="1246" dy="664" grid="1" gridSize="10" guides="1" tooltips="1" connect="1" arrows="1" fold="1" page="1" pageScale="1" pageWidth="827" pageHeight="1169" math="0" shadow="0">
      <root>
        <mxCell id="WIyWlLk6GJQsqaUBKTNV-0" />
        <mxCell id="WIyWlLk6GJQsqaUBKTNV-1" parent="WIyWlLk6GJQsqaUBKTNV-0" />
        <mxCell id="F0z8dnbwJXjkQ_49QfIX-3" value="" style="edgeStyle=orthogonalEdgeStyle;rounded=0;orthogonalLoop=1;jettySize=auto;html=1;" edge="1" parent="WIyWlLk6GJQsqaUBKTNV-1" source="F0z8dnbwJXjkQ_49QfIX-0" target="F0z8dnbwJXjkQ_49QfIX-2">
          <mxGeometry relative="1" as="geometry" />
        </mxCell>
        <mxCell id="F0z8dnbwJXjkQ_49QfIX-0" value="START" style="ellipse;whiteSpace=wrap;html=1;" vertex="1" parent="WIyWlLk6GJQsqaUBKTNV-1">
          <mxGeometry x="305" y="120" width="120" height="80" as="geometry" />
        </mxCell>
        <mxCell id="F0z8dnbwJXjkQ_49QfIX-1" value="&lt;font style=&quot;font-size: 16px;&quot;&gt;PRINT MULTIPLICATION&lt;/font&gt;" style="text;html=1;align=center;verticalAlign=middle;resizable=0;points=[];autosize=1;strokeColor=none;fillColor=none;" vertex="1" parent="WIyWlLk6GJQsqaUBKTNV-1">
          <mxGeometry x="260" y="70" width="210" height="30" as="geometry" />
        </mxCell>
        <mxCell id="F0z8dnbwJXjkQ_49QfIX-5" value="" style="edgeStyle=orthogonalEdgeStyle;rounded=0;orthogonalLoop=1;jettySize=auto;html=1;" edge="1" parent="WIyWlLk6GJQsqaUBKTNV-1" source="F0z8dnbwJXjkQ_49QfIX-2" target="F0z8dnbwJXjkQ_49QfIX-4">
          <mxGeometry relative="1" as="geometry" />
        </mxCell>
        <mxCell id="F0z8dnbwJXjkQ_49QfIX-2" value="input num1" style="shape=parallelogram;perimeter=parallelogramPerimeter;whiteSpace=wrap;html=1;fixedSize=1;" vertex="1" parent="WIyWlLk6GJQsqaUBKTNV-1">
          <mxGeometry x="305" y="260" width="120" height="60" as="geometry" />
        </mxCell>
        <mxCell id="F0z8dnbwJXjkQ_49QfIX-7" value="" style="edgeStyle=orthogonalEdgeStyle;rounded=0;orthogonalLoop=1;jettySize=auto;html=1;" edge="1" parent="WIyWlLk6GJQsqaUBKTNV-1" source="F0z8dnbwJXjkQ_49QfIX-4" target="F0z8dnbwJXjkQ_49QfIX-6">
          <mxGeometry relative="1" as="geometry" />
        </mxCell>
        <mxCell id="F0z8dnbwJXjkQ_49QfIX-4" value="for(i=0;i&amp;lt;10;i++)" style="rhombus;whiteSpace=wrap;html=1;" vertex="1" parent="WIyWlLk6GJQsqaUBKTNV-1">
          <mxGeometry x="300" y="370" width="130" height="80" as="geometry" />
        </mxCell>
        <mxCell id="F0z8dnbwJXjkQ_49QfIX-9" value="" style="edgeStyle=orthogonalEdgeStyle;rounded=0;orthogonalLoop=1;jettySize=auto;html=1;" edge="1" parent="WIyWlLk6GJQsqaUBKTNV-1" source="F0z8dnbwJXjkQ_49QfIX-6" target="F0z8dnbwJXjkQ_49QfIX-8">
          <mxGeometry relative="1" as="geometry" />
        </mxCell>
        <mxCell id="F0z8dnbwJXjkQ_49QfIX-6" value="print(num1+&quot;x&quot;+(i+1)+&quot;=&quot;=(num*(i+1))" style="rounded=1;whiteSpace=wrap;html=1;" vertex="1" parent="WIyWlLk6GJQsqaUBKTNV-1">
          <mxGeometry x="292.5" y="480" width="145" height="110" as="geometry" />
        </mxCell>
        <mxCell id="F0z8dnbwJXjkQ_49QfIX-11" value="" style="edgeStyle=orthogonalEdgeStyle;rounded=0;orthogonalLoop=1;jettySize=auto;html=1;" edge="1" parent="WIyWlLk6GJQsqaUBKTNV-1" source="F0z8dnbwJXjkQ_49QfIX-8" target="F0z8dnbwJXjkQ_49QfIX-10">
          <mxGeometry relative="1" as="geometry" />
        </mxCell>
        <mxCell id="F0z8dnbwJXjkQ_49QfIX-8" value="output num1" style="shape=parallelogram;perimeter=parallelogramPerimeter;whiteSpace=wrap;html=1;fixedSize=1;rounded=1;" vertex="1" parent="WIyWlLk6GJQsqaUBKTNV-1">
          <mxGeometry x="490" y="505" width="120" height="60" as="geometry" />
        </mxCell>
        <mxCell id="F0z8dnbwJXjkQ_49QfIX-10" value="end" style="ellipse;whiteSpace=wrap;html=1;rounded=1;" vertex="1" parent="WIyWlLk6GJQsqaUBKTNV-1">
          <mxGeometry x="670" y="500" width="110" height="70" as="geometry" />
        </mxCell>
      </root>
    </mxGraphModel>
  </diagram>
</mxfile>
